<svg width="22" height="22" viewBox="0 0 22 22" fill="none" xmlns="http://www.w3.org/2000/svg">
<path d="M11 0C9.831 0 9.1533 0.80247 8.8193 1.54297C7.0153 1.90497 3.86899 3.47809 3.47949 7.3711C3.33299 9.6671 3.05925 13.9419 1.53125 14.6504C1.42525 14.6994 1.32762 14.7666 1.24512 14.8496C1.11762 14.9771 0 16.147 0 18C0 18.552 0.448 19 1 19H7.6289C7.8262 20.6865 9.2614 22 11 22C12.7386 22 14.1738 20.6865 14.3711 19H21C21.552 19 22 18.552 22 18C22 16.147 20.8824 14.9771 20.7549 14.8496C20.6724 14.7671 20.5748 14.6989 20.4688 14.6494C18.9412 13.9409 18.6666 9.667 18.5166 7.335C18.1291 3.47296 14.9832 1.90349 13.1797 1.54199C12.8462 0.80199 12.169 0 11 0ZM11 2C11.3015 2 11.3834 2.30993 11.4434 2.62793C11.5319 3.09543 11.9422 3.45703 12.4287 3.45703C12.4657 3.45703 16.1559 3.82502 16.5244 7.499C16.7789 11.466 17.1949 15.1254 19.4189 16.3584C19.5124 16.4784 19.667 16.7005 19.793 17H2.20703C2.33353 16.6985 2.4881 16.4769 2.5791 16.3594C4.8046 15.1274 5.2212 11.4677 5.4727 7.5352C5.8442 3.82516 9.5343 3.45703 9.5713 3.45703C10.0498 3.45703 10.4672 3.0782 10.5547 2.6377C10.6162 2.3302 10.698 2 11 2ZM9.668 19H12.332C12.1599 19.5762 11.6314 20 11 20C10.3686 20 9.8401 19.5762 9.668 19Z" fill="white"/>
</svg>
