<svg width="22" height="22" viewBox="0 0 20 22" fill="none" xmlns="http://www.w3.org/2000/svg">
<path fill-rule="evenodd" clip-rule="evenodd" d="M13.6364 11.9167H13.2727C15 10.8167 16.2727 8.89167 16.3636 6.6C16.4545 3.11667 13.5455 0 10.0909 0C6.45455 0 3.63636 2.84167 3.63636 6.41667C3.63636 8.8 4.81818 10.8167 6.72727 11.9167H6.36364C2.81818 11.9167 0 14.7583 0 18.3333V19.25C0 20.8083 1.18182 22 2.72727 22H17.2727C18.8182 22 20 20.8083 20 19.25V18.3333C20 14.7583 17.1818 11.9167 13.6364 11.9167ZM5.45455 6.41667C5.45455 3.85 7.45455 1.83333 10 1.83333C12.5455 1.83333 14.5455 3.85 14.5455 6.41667C14.5455 8.98333 12.5455 11 10 11C7.45455 11 5.45455 8.98333 5.45455 6.41667ZM17.2727 20.1667H2.72727C2.18182 20.1667 1.81818 19.8 1.81818 19.25V18.3333C1.81818 15.7667 3.81818 13.75 6.36364 13.75H13.6364C16.1818 13.75 18.1818 15.7667 18.1818 18.3333V19.25C18.1818 19.8 17.8182 20.1667 17.2727 20.1667Z" fill="white"/>
</svg>

