<?xml version="1.0" standalone="no"?>
<!DOCTYPE svg PUBLIC "-//W3C//DTD SVG 20010904//EN"
 "http://www.w3.org/TR/2001/REC-SVG-20010904/DTD/svg10.dtd">
<svg version="1.0" xmlns="http://www.w3.org/2000/svg"
 width="96.000000pt" height="96.000000pt" viewBox="0 0 96.000000 96.000000"
 preserveAspectRatio="xMidYMid meet">

<g transform="translate(0.000000,96.000000) scale(0.100000,-0.100000)"
fill="#7f3bfa" stroke="none">
<path d="M44 916 c-29 -29 -34 -41 -34 -82 l0 -48 152 -153 152 -153 -152
-153 -152 -153 0 -48 c0 -41 5 -53 34 -82 29 -29 41 -34 82 -34 l48 0 153 152
153 152 153 -152 153 -152 48 0 c41 0 53 5 82 34 29 29 34 41 34 82 l0 48
-152 153 -152 153 152 153 152 153 0 48 c0 41 -5 53 -34 82 -29 29 -41 34 -82
34 l-48 0 -153 -152 -153 -152 -153 152 -153 152 -48 0 c-41 0 -53 -5 -82 -34z"/>
</g>
</svg>
